# xmcd CD database file
#
# Track frame offsets:
#	225
#	20818
#	43386
#	65413
#	106589
#
# Disc length: 1851 seconds
#
# Revision: 0
# Processed by: cddbd v1.5.2PL0 Copyright (c) Steve Scherf et al.
# Submitted via: CDex 1.99.1
#
DISCID=40073805
DTITLE=Zone 0 - Last Session With Vasko
DYEAR=2014
DGENRE=Jazz
TTITLE0=Soundcheck
TTITLE1=Time Out
TTITLE2=Girltalk
TTITLE3=Polusios
TTITLE4=Love
EXTD=YEAR: 2014
EXTT0=
EXTT1=
EXTT2=
EXTT3=
EXTT4=
PLAYORDER=
